<svg xmlns="http://www.w3.org/2000/svg" width="64" height="64" viewBox="0 0 256 256">
  <rect width="256" height="256" rx="54" fill="#fff7f5"/>
  <defs>
    <linearGradient id="markGradient" x1="36" y1="40" x2="220" y2="224" gradientUnits="userSpaceOnUse">
      <stop offset="0" stop-color="#d85d73"/>
      <stop offset="1" stop-color="#e58a9a"/>
    </linearGradient>
  </defs>
  <path d="M128 196c-6-10-17-20-32-31-30-22-52-42-52-75 0-30 23-54 53-54 17 0 32 8 41 22 10-14 25-22 42-22 30 0 53 24 53 54 0 33-22 53-52 75-15 11-26 21-32 31l-11 18-10-18Z" fill="none" stroke="url(#markGradient)" stroke-width="18" stroke-linecap="round" stroke-linejoin="round"/>
  <path d="M78 139c28-17 61-21 92-11 11 4 21 9 32 9 13 0 25-5 36-13" fill="none" stroke="#c94f66" stroke-width="14" stroke-linecap="round"/>
  <circle cx="129" cy="98" r="19" fill="#f0ad63"/>
  <path d="M154 186l-13 30 34-22" fill="none" stroke="#b95f8b" stroke-width="18" stroke-linecap="round" stroke-linejoin="round"/>
</svg>
